<?xml version="1.0" encoding="utf-8"?>
<!-- Generator: Adobe Illustrator 19.0.1, SVG Export Plug-In . SVG Version: 6.00 Build 0)  -->
<svg version="1.1" id="Layer_1" xmlns="http://www.w3.org/2000/svg" xmlns:xlink="http://www.w3.org/1999/xlink" x="0px" y="0px"
	 viewBox="0 0 295 74" xml:space="preserve" class="musa-logo-svg">
<style type="text/css">
	.st0{fill:#0aa89e;}
</style>
<g id="main_text" transform="translate(-7.9396702388633775, -14.505152115339136) scale(4.9010313578653735)" xmlns:name="mainText_mainfill">
	<path class="st0" d="M15.4,2.8c0.4,0,0.7,0.3,0.7,0.7v13.4c0,0.4-0.3,0.7-0.7,0.7h-1.5c-0.4,0-0.7-0.3-0.7-0.7v-9l-3.7,4.8
		c-0.1,0.2-0.3,0.3-0.6,0.3l0,0c-0.2,0-0.4-0.1-0.6-0.3L1.8,4C1.6,3.8,1.6,3.5,1.7,3.2C1.8,3,2.1,2.8,2.3,2.8h1.8
		c0.2,0,0.4,0.1,0.6,0.3l4.2,5.6L13,3.1c0.1-0.2,0.3-0.3,0.6-0.3C13.6,2.8,15.4,2.8,15.4,2.8z M3.8,12.5c0.4,0,0.7,0.3,0.7,0.7v3.7
		c0,0.4-0.3,0.7-0.7,0.7H2.3c-0.4,0-0.7-0.3-0.7-0.7v-3.7c0-0.4,0.3-0.7,0.7-0.7C2.3,12.5,3.8,12.5,3.8,12.5z M31.1,2.8
		c0.4,0,0.7,0.3,0.7,0.7v7.6c0,1.9-0.6,3.5-1.8,4.8c-1.2,1.2-2.7,1.8-4.6,1.8s-3.4-0.6-4.6-1.8c-1.2-1.2-1.8-2.8-1.8-4.8V3.5
		c0-0.4,0.3-0.7,0.7-0.7h1.5c0.4,0,0.7,0.3,0.7,0.7v7.6c0,1.2,0.3,2.2,1.1,2.8c0.6,0.6,1.4,0.8,2.4,0.8c1,0,1.8-0.3,2.4-0.8
		c0.7-0.7,1.1-1.6,1.1-2.8V3.5c0-0.4,0.3-0.7,0.7-0.7C29.6,2.8,31.1,2.8,31.1,2.8z M44.6,10.3c1.1,0.7,1.7,1.8,1.7,3.1
		c0,1.5-0.6,2.6-1.7,3.4c-1,0.7-2.5,1.1-4.3,1.1c-2,0-3.6-0.4-4.7-1.3c-1-0.8-1.6-2-1.7-3.4c0-0.2,0-0.4,0.2-0.5s0.3-0.2,0.5-0.2
		h1.6c0.4,0,0.7,0.3,0.7,0.6c0,0.7,0.3,1.2,1,1.5c0.6,0.3,1.5,0.5,2.5,0.5c3,0,3-1.2,3-1.6c0-0.3-0.1-0.5-0.4-0.7
		c-0.4-0.3-0.9-0.5-1.5-0.7c-0.7-0.2-1.4-0.4-2.1-0.6c-0.8-0.2-1.6-0.4-2.3-0.7c-0.8-0.3-1.4-0.7-1.9-1.2c-0.6-0.6-0.9-1.4-0.9-2.3
		c0-1.3,0.5-2.4,1.5-3.2c1-0.8,2.4-1.2,4.2-1.2s3.3,0.4,4.4,1.3C45.4,5,45.9,6,46,7.3c0,0.2-0.1,0.4-0.2,0.5C45.7,7.9,45.5,8,45.3,8
		h-1.6c-0.3,0-0.6-0.3-0.7-0.6c-0.1-0.5-0.3-1.2-1.6-1.6c-0.4-0.1-0.9-0.2-1.5-0.2s-1.1,0.1-1.5,0.2c-0.4,0.1-0.7,0.3-0.8,0.4
		c-0.2,0.1-0.3,0.3-0.3,0.4c-0.1,0.2-0.1,0.4-0.1,0.6c0,0,0,0.2,0.2,0.3c0.2,0.2,0.5,0.4,0.8,0.5c0.4,0.2,0.9,0.3,1.4,0.4
		c0.5,0.1,1.1,0.3,1.7,0.4s1.2,0.3,1.7,0.5C43.6,9.7,44.1,9.9,44.6,10.3L44.6,10.3z M56,3.3l5.6,13.2c0.1,0.1,0.1,0.2,0.1,0.3
		c0,0.4-0.3,0.7-0.7,0.7l0,0h-1.7c-0.3,0-0.5-0.2-0.6-0.4l-1.5-3.4h-5.7l-1.4,3.4c-0.1,0.3-0.4,0.4-0.6,0.4h-1.7
		c-0.2,0-0.5-0.1-0.6-0.3c-0.1-0.2-0.2-0.4-0.1-0.6l5.6-13.3C53,3,53.2,2.8,53.5,2.8h1.9C55.7,2.8,55.9,3,56,3.3L56,3.3z M54.5,6.9
		l-1.7,4h3.3L54.5,6.9z"/>
</g>
</svg>
